<?xml version="1.0" encoding="UTF-8" standalone="no"?>
<!DOCTYPE svg PUBLIC "-//W3C//DTD SVG 1.1//EN" "http://www.w3.org/Graphics/SVG/1.1/DTD/svg11.dtd">
<svg width="100%" height="100%" viewBox="0 0 1860 762" version="1.1" xmlns="http://www.w3.org/2000/svg" xmlns:xlink="http://www.w3.org/1999/xlink" xml:space="preserve" xmlns:serif="http://www.serif.com/" style="fill-rule:evenodd;clip-rule:evenodd;stroke-linecap:round;stroke-linejoin:round;stroke-miterlimit:1.5;">
    <g transform="matrix(1,0,0,1,0,-661.131814)">
        <g id="Page-1" serif:id="Page 1" transform="matrix(0.968311,0,0,0.704985,0,661.131814)">
            <rect x="0" y="0" width="1920" height="1080" style="fill:none;"/>
            <clipPath id="_clip1">
                <rect x="0" y="0" width="1920" height="1080"/>
            </clipPath>
            <g clip-path="url(#_clip1)">
                <g transform="matrix(1.032726,0,0,1.418469,-152.329663,-937.795059)">
                    <path d="M8029.29,-53.968L8029.29,4549.201L-46.157,4549.201L-46.157,-53.968L8029.29,-53.968ZM2038.739,2386.172C2038.743,2386.323 2038.745,2386.474 2038.745,2386.625C2038.745,2386.777 2038.743,2386.928 2038.739,2387.079C2038.499,2395.032 2031.967,2401.415 2023.956,2401.415C2017.051,2401.415 2011.245,2396.673 2009.619,2390.271C2014.667,2389.142 2018.443,2384.631 2018.443,2379.245C2018.443,2377.192 2017.895,2375.266 2016.936,2373.607C2014.983,2370.225 2011.328,2367.947 2007.145,2367.947C2001.013,2367.947 1996.015,2372.843 1995.851,2378.937C1995.861,2379.5 1995.887,2380.058 1995.929,2380.613C1997.035,2395.117 2009.17,2406.559 2023.956,2406.559C2029.377,2406.559 2034.443,2405.02 2038.739,2402.357C2046.062,2397.816 2051.148,2390.005 2051.952,2380.97L2051.952,2210.314L2038.739,2210.314L2038.739,2386.172Z" style="fill:none;stroke:rgb(120,139,255);stroke-width:0.63px;"/>
                </g>
                <g transform="matrix(2.873586,0,0,3.946927,-1960.780228,-1556.086374)">
                    <g transform="matrix(2.113509,0,0,2.152878,106.850392,-1277.505088)">
                        <g transform="matrix(0,-1,-1,0,342.2728,838.9282)">
                            <path d="M-28.287,16.357L16.357,16.357L16.357,28.287L-4.838,28.287C-14.467,28.287 -23.003,23.595 -28.287,16.357" style="fill-rule:nonzero;"/>
                        </g>
                        <g transform="matrix(1,0,0,1,343.0013,822.5707)">
                            <path d="M0,50.211C2.07,50.211 4.088,49.992 6.042,49.581L6.042,0L-5.412,0L-5.412,49.697C-3.664,50.044 -1.851,50.211 0,50.211" style="fill-rule:nonzero;"/>
                        </g>
                        <g transform="matrix(1,0,0,1,372.0302,845.5448)">
                            <path d="M0,-1.779L0,-22.974L-11.313,-22.974L-11.313,21.195C-10.323,20.449 -9.385,19.626 -8.498,18.739C-3.253,13.481 0,6.23 0,-1.779" style="fill-rule:nonzero;"/>
                        </g>
                        <g transform="matrix(-1,0,0,1,686.284,529.461)">
                            <rect x="313.974" y="270.09" width="58.096" height="11.559"/>
                        </g>
                        <g transform="matrix(1,0,0,1,383.7628,882.0602)">
                            <path d="M0,-75.822L0,-42.104C0,-19.842 -17.51,-1.065 -39.767,-0.539C-51.405,-0.263 -61.982,-4.876 -69.577,-12.457C-76.943,-19.837 -81.507,-30.031 -81.507,-41.28L-81.507,-75.822C-81.507,-83.632 -87.838,-89.964 -95.648,-89.964L-95.648,-42.253C-95.648,-11.526 -70.504,14.142 -39.782,13.606C-9.953,13.086 14.142,-11.329 14.142,-41.28L14.142,-89.964C6.331,-89.964 0,-83.632 0,-75.822" style="fill-rule:nonzero;"/>
                        </g>
                    </g>
                    <g transform="matrix(3.098911,0,0,3.098911,267.47986,-2007.276136)">
                        <g transform="matrix(0.717381,0,0,0.704456,263.961894,792.269586)">
                            <path d="M-3.149,65.623L-38.886,65.623L-38.886,0L-26.699,0L-26.699,54.007L-7.578,54.007L-3.149,65.623Z" style="fill-rule:nonzero;"/>
                        </g>
                        <g transform="matrix(0.717381,0,0,0.704456,285.771959,850.909134)">
                            <path d="M2.375,-65.774L-14.792,-17.593L-14.792,-11.918C-14.792,-5.793 -20.624,0 -26.027,0L-44.312,0L-47.192,-11.647L-30.17,-11.647C-28.008,-11.647 -26.928,-12.818 -26.928,-14.889L-26.928,-17.593L-45.844,-65.774L-33.599,-65.774L-20.85,-29.542L-9.817,-65.774L2.375,-65.774Z" style="fill-rule:nonzero;"/>
                        </g>
                        <g transform="matrix(0.717381,0,0,0.704456,290.238921,804.090198)">
                            <path d="M0,48.92L0,0.72L12.167,0.72L12.167,7.024C14.328,1.62 16.031,0.72 20.263,0.72L26.147,0.72L26.147,10.656L17.922,10.656C13.329,10.656 12.167,12.427 12.167,18.371L12.167,48.92L0,48.92Z" style="fill-rule:nonzero;"/>
                        </g>
                        <g transform="matrix(0.717381,0,0,0.704456,322.399623,809.872026)">
                            <path d="M0,32.724C6.575,32.724 12.619,29.178 12.619,20.443L12.619,18.281C12.619,19.092 10.769,19.722 3.924,19.722C-3.731,19.722 -7.134,21.883 -7.134,27.016C-7.134,31.7 -3.862,32.724 1.271,32.724M-16.781,9.996C-16.241,-0.902 -7.177,-7.746 3.99,-7.746C15.788,-7.746 24.817,-0.902 24.817,12.517L24.817,29.629C24.817,30.98 24.815,40.49 24.815,40.49L18.102,40.49C14.77,40.49 12.699,38.183 12.699,35.032L12.699,31.7C12.158,33.23 11.528,34.491 10.718,35.302C7.656,39.535 3.242,40.47 -2.431,40.47L-2.702,40.47C-12.338,40.47 -18.282,36.563 -18.282,27.467C-18.282,17.831 -10.096,12.906 4.043,12.906C7.826,12.906 10.774,12.697 11.585,12.247C12.396,11.797 12.756,10.896 12.756,9.725L12.756,9.275C12.756,3.511 9.664,0.179 3.99,0.179C-1.774,0.179 -6.935,3.421 -7.205,9.996L-16.781,9.996Z" style="fill-rule:nonzero;"/>
                        </g>
                    </g>
                </g>
            </g>
        </g>
    </g>
</svg>
